<mxfile host="Electron" agent="Mozilla/5.0 (Windows NT 10.0; Win64; x64) AppleWebKit/537.36 (KHTML, like Gecko) draw.io/24.7.8 Chrome/128.0.6613.36 Electron/32.0.1 Safari/537.36" version="24.7.8">
  <diagram name="Page-1" id="Owd2SRiHzV2Soi2USLMp">
    <mxGraphModel dx="2899" dy="1194" grid="1" gridSize="10" guides="1" tooltips="1" connect="1" arrows="1" fold="1" page="1" pageScale="1" pageWidth="850" pageHeight="1100" math="0" shadow="0">
      <root>
        <mxCell id="0" />
        <mxCell id="1" parent="0" />
        <mxCell id="w0ju0qZ8pygQDqyRYgYo-1" value="EDMS User" style="swimlane;whiteSpace=wrap;fontSize=16;fontStyle=1" vertex="1" parent="1">
          <mxGeometry x="-220" y="128" width="580" height="1712" as="geometry" />
        </mxCell>
        <mxCell id="w0ju0qZ8pygQDqyRYgYo-2" style="edgeStyle=orthogonalEdgeStyle;rounded=0;orthogonalLoop=1;jettySize=auto;html=1;exitX=0.5;exitY=1;exitDx=0;exitDy=0;entryX=0.5;entryY=0;entryDx=0;entryDy=0;fontStyle=1" edge="1" parent="w0ju0qZ8pygQDqyRYgYo-1" source="w0ju0qZ8pygQDqyRYgYo-3" target="w0ju0qZ8pygQDqyRYgYo-5">
          <mxGeometry relative="1" as="geometry" />
        </mxCell>
        <mxCell id="w0ju0qZ8pygQDqyRYgYo-3" value="Navigate to login" style="rounded=1;fontSize=19;fillColor=#fff2cc;strokeColor=#d6b656;fontStyle=1" vertex="1" parent="w0ju0qZ8pygQDqyRYgYo-1">
          <mxGeometry x="40.010000000000005" y="110" width="200" height="62.5" as="geometry" />
        </mxCell>
        <mxCell id="w0ju0qZ8pygQDqyRYgYo-4" style="edgeStyle=orthogonalEdgeStyle;rounded=0;orthogonalLoop=1;jettySize=auto;html=1;exitX=1;exitY=0.5;exitDx=0;exitDy=0;entryX=0;entryY=0.5;entryDx=0;entryDy=0;fontStyle=1" edge="1" parent="w0ju0qZ8pygQDqyRYgYo-1" source="w0ju0qZ8pygQDqyRYgYo-5" target="w0ju0qZ8pygQDqyRYgYo-9">
          <mxGeometry relative="1" as="geometry" />
        </mxCell>
        <mxCell id="w0ju0qZ8pygQDqyRYgYo-5" value="Have an account?" style="rhombus;fontSize=19;fillColor=#dae8fc;strokeColor=#6c8ebf;fontStyle=1" vertex="1" parent="w0ju0qZ8pygQDqyRYgYo-1">
          <mxGeometry x="42.51" y="242" width="195" height="140" as="geometry" />
        </mxCell>
        <mxCell id="w0ju0qZ8pygQDqyRYgYo-6" value="No" style="text;html=1;align=center;verticalAlign=middle;whiteSpace=wrap;rounded=0;fontSize=19;fontStyle=1" vertex="1" parent="w0ju0qZ8pygQDqyRYgYo-1">
          <mxGeometry x="210" y="272" width="60" height="30" as="geometry" />
        </mxCell>
        <mxCell id="w0ju0qZ8pygQDqyRYgYo-7" value="Enter email, username and password" style="whiteSpace=wrap;rounded=1;fontSize=19;fillColor=#fff2cc;strokeColor=#d6b656;fontStyle=1" vertex="1" parent="w0ju0qZ8pygQDqyRYgYo-1">
          <mxGeometry x="310" y="290" width="200" height="70.62" as="geometry" />
        </mxCell>
        <mxCell id="w0ju0qZ8pygQDqyRYgYo-8" value="Yes" style="text;html=1;align=center;verticalAlign=middle;whiteSpace=wrap;rounded=0;fontSize=19;fontStyle=1" vertex="1" parent="w0ju0qZ8pygQDqyRYgYo-1">
          <mxGeometry x="80" y="382" width="60" height="30" as="geometry" />
        </mxCell>
        <mxCell id="w0ju0qZ8pygQDqyRYgYo-9" value="Select Sign Up button" style="whiteSpace=wrap;rounded=1;fontSize=19;fillColor=#fff2cc;strokeColor=#d6b656;fontStyle=1" vertex="1" parent="w0ju0qZ8pygQDqyRYgYo-1">
          <mxGeometry x="310" y="110" width="200" height="62.5" as="geometry" />
        </mxCell>
        <mxCell id="w0ju0qZ8pygQDqyRYgYo-10" style="edgeStyle=orthogonalEdgeStyle;rounded=0;orthogonalLoop=1;jettySize=auto;html=1;exitX=0.5;exitY=1;exitDx=0;exitDy=0;entryX=0.5;entryY=0;entryDx=0;entryDy=0;fontStyle=1" edge="1" parent="w0ju0qZ8pygQDqyRYgYo-1" source="w0ju0qZ8pygQDqyRYgYo-5" target="w0ju0qZ8pygQDqyRYgYo-18">
          <mxGeometry relative="1" as="geometry" />
        </mxCell>
        <mxCell id="w0ju0qZ8pygQDqyRYgYo-11" style="edgeStyle=orthogonalEdgeStyle;rounded=0;orthogonalLoop=1;jettySize=auto;html=1;exitX=0;exitY=0.5;exitDx=0;exitDy=0;entryX=0.75;entryY=1;entryDx=0;entryDy=0;fontStyle=1" edge="1" parent="w0ju0qZ8pygQDqyRYgYo-1" source="w0ju0qZ8pygQDqyRYgYo-13" target="w0ju0qZ8pygQDqyRYgYo-18">
          <mxGeometry relative="1" as="geometry" />
        </mxCell>
        <mxCell id="w0ju0qZ8pygQDqyRYgYo-12" style="edgeStyle=orthogonalEdgeStyle;rounded=0;orthogonalLoop=1;jettySize=auto;html=1;exitX=0.5;exitY=1;exitDx=0;exitDy=0;entryX=0.5;entryY=0;entryDx=0;entryDy=0;fontStyle=1" edge="1" parent="w0ju0qZ8pygQDqyRYgYo-1" source="w0ju0qZ8pygQDqyRYgYo-13" target="w0ju0qZ8pygQDqyRYgYo-20">
          <mxGeometry relative="1" as="geometry">
            <mxPoint x="430" y="966" as="targetPoint" />
          </mxGeometry>
        </mxCell>
        <mxCell id="w0ju0qZ8pygQDqyRYgYo-13" value="Forgot password?" style="rhombus;fontSize=19;fillColor=#dae8fc;strokeColor=#6c8ebf;fontStyle=1" vertex="1" parent="w0ju0qZ8pygQDqyRYgYo-1">
          <mxGeometry x="312.50000000000006" y="864.25" width="195" height="145" as="geometry" />
        </mxCell>
        <mxCell id="w0ju0qZ8pygQDqyRYgYo-14" value="Yes" style="text;html=1;strokeColor=none;fillColor=none;align=center;verticalAlign=middle;whiteSpace=wrap;rounded=0;fontSize=19;fontStyle=1" vertex="1" parent="w0ju0qZ8pygQDqyRYgYo-1">
          <mxGeometry x="350" y="1002" width="60" height="30" as="geometry" />
        </mxCell>
        <mxCell id="w0ju0qZ8pygQDqyRYgYo-15" value="No" style="text;html=1;strokeColor=none;fillColor=none;align=center;verticalAlign=middle;whiteSpace=wrap;rounded=0;fontSize=19;fontStyle=1" vertex="1" parent="w0ju0qZ8pygQDqyRYgYo-1">
          <mxGeometry x="270" y="902" width="60" height="30" as="geometry" />
        </mxCell>
        <mxCell id="w0ju0qZ8pygQDqyRYgYo-16" style="edgeStyle=orthogonalEdgeStyle;rounded=0;orthogonalLoop=1;jettySize=auto;html=1;exitX=0.5;exitY=1;exitDx=0;exitDy=0;entryX=0.5;entryY=0;entryDx=0;entryDy=0;fontStyle=1" edge="1" parent="w0ju0qZ8pygQDqyRYgYo-1" source="w0ju0qZ8pygQDqyRYgYo-17" target="w0ju0qZ8pygQDqyRYgYo-3">
          <mxGeometry relative="1" as="geometry" />
        </mxCell>
        <mxCell id="w0ju0qZ8pygQDqyRYgYo-17" value="" style="ellipse;fillColor=strokeColor;html=1;fontStyle=1" vertex="1" parent="w0ju0qZ8pygQDqyRYgYo-1">
          <mxGeometry x="125" y="32" width="30" height="30" as="geometry" />
        </mxCell>
        <mxCell id="w0ju0qZ8pygQDqyRYgYo-18" value="Enter username and&#xa;password" style="rounded=1;fontSize=19;fillColor=#fff2cc;strokeColor=#d6b656;fontStyle=1" vertex="1" parent="w0ju0qZ8pygQDqyRYgYo-1">
          <mxGeometry x="40.010000000000005" y="612" width="200" height="62.5" as="geometry" />
        </mxCell>
        <mxCell id="w0ju0qZ8pygQDqyRYgYo-19" value="Enter email address" style="whiteSpace=wrap;rounded=1;fontSize=19;fillColor=#fff2cc;strokeColor=#d6b656;fontStyle=1" vertex="1" parent="w0ju0qZ8pygQDqyRYgYo-1">
          <mxGeometry x="312.5" y="1221" width="200" height="62.5" as="geometry" />
        </mxCell>
        <mxCell id="w0ju0qZ8pygQDqyRYgYo-20" value="Select forgot password" style="whiteSpace=wrap;rounded=1;fontSize=19;fillColor=#fff2cc;strokeColor=#d6b656;fontStyle=1" vertex="1" parent="w0ju0qZ8pygQDqyRYgYo-1">
          <mxGeometry x="310" y="1072" width="200" height="62.5" as="geometry" />
        </mxCell>
        <mxCell id="w0ju0qZ8pygQDqyRYgYo-21" value="EDMS App" style="swimlane;whiteSpace=wrap;fontSize=16;fontStyle=1" vertex="1" parent="1">
          <mxGeometry x="360" y="128" width="640" height="1712" as="geometry" />
        </mxCell>
        <mxCell id="w0ju0qZ8pygQDqyRYgYo-22" style="edgeStyle=orthogonalEdgeStyle;rounded=0;orthogonalLoop=1;jettySize=auto;html=1;exitX=1;exitY=0.5;exitDx=0;exitDy=0;entryX=0.75;entryY=0;entryDx=0;entryDy=0;" edge="1" parent="w0ju0qZ8pygQDqyRYgYo-21">
          <mxGeometry relative="1" as="geometry">
            <mxPoint x="212.75" y="696" as="sourcePoint" />
          </mxGeometry>
        </mxCell>
        <mxCell id="w0ju0qZ8pygQDqyRYgYo-23" style="edgeStyle=orthogonalEdgeStyle;rounded=0;orthogonalLoop=1;jettySize=auto;html=1;exitX=0;exitY=0.5;exitDx=0;exitDy=0;entryX=0.25;entryY=0;entryDx=0;entryDy=0;" edge="1" parent="w0ju0qZ8pygQDqyRYgYo-21">
          <mxGeometry relative="1" as="geometry">
            <mxPoint x="76.75" y="696" as="sourcePoint" />
          </mxGeometry>
        </mxCell>
        <mxCell id="w0ju0qZ8pygQDqyRYgYo-24" style="edgeStyle=orthogonalEdgeStyle;rounded=0;orthogonalLoop=1;jettySize=auto;html=1;entryX=0.5;entryY=0;entryDx=0;entryDy=0;exitX=1;exitY=0.5;exitDx=0;exitDy=0;fontSize=16;fontStyle=1" edge="1" parent="w0ju0qZ8pygQDqyRYgYo-21" source="w0ju0qZ8pygQDqyRYgYo-27" target="w0ju0qZ8pygQDqyRYgYo-33">
          <mxGeometry relative="1" as="geometry">
            <mxPoint x="234.25" y="416" as="targetPoint" />
            <mxPoint x="285.5" y="352" as="sourcePoint" />
          </mxGeometry>
        </mxCell>
        <mxCell id="w0ju0qZ8pygQDqyRYgYo-25" value="Yes" style="text;html=1;strokeColor=none;fillColor=none;align=center;verticalAlign=middle;whiteSpace=wrap;rounded=0;fontSize=19;fontStyle=1" vertex="1" parent="w0ju0qZ8pygQDqyRYgYo-21">
          <mxGeometry x="360" y="392" width="60" height="30" as="geometry" />
        </mxCell>
        <mxCell id="w0ju0qZ8pygQDqyRYgYo-26" value="Display the registration page" style="whiteSpace=wrap;rounded=1;fontSize=19;fillColor=#fff2cc;strokeColor=#d6b656;fontStyle=1" vertex="1" parent="w0ju0qZ8pygQDqyRYgYo-21">
          <mxGeometry x="165" y="110" width="200" height="62.5" as="geometry" />
        </mxCell>
        <mxCell id="w0ju0qZ8pygQDqyRYgYo-27" value="Valid userÂ &#xa;credentials?" style="rhombus;fontSize=19;fillColor=#dae8fc;strokeColor=#6c8ebf;fontStyle=1" vertex="1" parent="w0ju0qZ8pygQDqyRYgYo-21">
          <mxGeometry x="167" y="352" width="195" height="140" as="geometry" />
        </mxCell>
        <mxCell id="w0ju0qZ8pygQDqyRYgYo-28" style="edgeStyle=orthogonalEdgeStyle;rounded=0;orthogonalLoop=1;jettySize=auto;html=1;exitX=0;exitY=0.5;exitDx=0;exitDy=0;fontSize=16;fontStyle=1" edge="1" parent="w0ju0qZ8pygQDqyRYgYo-21" source="w0ju0qZ8pygQDqyRYgYo-27" target="w0ju0qZ8pygQDqyRYgYo-34">
          <mxGeometry relative="1" as="geometry">
            <mxPoint x="95" y="572" as="targetPoint" />
            <mxPoint x="175" y="582" as="sourcePoint" />
          </mxGeometry>
        </mxCell>
        <mxCell id="w0ju0qZ8pygQDqyRYgYo-29" value="No" style="text;html=1;strokeColor=none;fillColor=none;align=center;verticalAlign=middle;whiteSpace=wrap;rounded=0;fontSize=19;fontStyle=1" vertex="1" parent="w0ju0qZ8pygQDqyRYgYo-21">
          <mxGeometry x="99.49999999999999" y="392" width="60" height="30" as="geometry" />
        </mxCell>
        <mxCell id="w0ju0qZ8pygQDqyRYgYo-30" style="edgeStyle=orthogonalEdgeStyle;rounded=0;orthogonalLoop=1;jettySize=auto;html=1;exitX=0.5;exitY=1;exitDx=0;exitDy=0;entryX=0.5;entryY=0;entryDx=0;entryDy=0;fontStyle=1" edge="1" parent="w0ju0qZ8pygQDqyRYgYo-21" source="w0ju0qZ8pygQDqyRYgYo-31" target="w0ju0qZ8pygQDqyRYgYo-27">
          <mxGeometry relative="1" as="geometry" />
        </mxCell>
        <mxCell id="w0ju0qZ8pygQDqyRYgYo-31" value="Validate new user details" style="whiteSpace=wrap;rounded=1;fontSize=19;fillColor=#fff2cc;strokeColor=#d6b656;fontStyle=1" vertex="1" parent="w0ju0qZ8pygQDqyRYgYo-21">
          <mxGeometry x="165" y="222" width="200" height="62.5" as="geometry" />
        </mxCell>
        <mxCell id="w0ju0qZ8pygQDqyRYgYo-32" style="edgeStyle=orthogonalEdgeStyle;rounded=0;orthogonalLoop=1;jettySize=auto;html=1;exitX=0.5;exitY=1;exitDx=0;exitDy=0;fontStyle=1" edge="1" parent="w0ju0qZ8pygQDqyRYgYo-21" source="w0ju0qZ8pygQDqyRYgYo-33">
          <mxGeometry relative="1" as="geometry">
            <mxPoint x="500" y="942" as="targetPoint" />
          </mxGeometry>
        </mxCell>
        <mxCell id="w0ju0qZ8pygQDqyRYgYo-33" value="Add new user to databbase" style="whiteSpace=wrap;rounded=1;fontSize=19;fillColor=#fff2cc;strokeColor=#d6b656;fontStyle=1" vertex="1" parent="w0ju0qZ8pygQDqyRYgYo-21">
          <mxGeometry x="400" y="542" width="200" height="62.5" as="geometry" />
        </mxCell>
        <mxCell id="w0ju0qZ8pygQDqyRYgYo-34" value="Display error message" style="whiteSpace=wrap;rounded=1;fontSize=19;fillColor=#fff2cc;strokeColor=#d6b656;fontStyle=1" vertex="1" parent="w0ju0qZ8pygQDqyRYgYo-21">
          <mxGeometry x="40" y="542" width="200" height="62.5" as="geometry" />
        </mxCell>
        <mxCell id="w0ju0qZ8pygQDqyRYgYo-35" value="Yes" style="text;html=1;strokeColor=none;fillColor=none;align=center;verticalAlign=middle;whiteSpace=wrap;rounded=0;fontSize=19;fontStyle=1" vertex="1" parent="w0ju0qZ8pygQDqyRYgYo-21">
          <mxGeometry x="350" y="722" width="60" height="30" as="geometry" />
        </mxCell>
        <mxCell id="w0ju0qZ8pygQDqyRYgYo-36" style="edgeStyle=orthogonalEdgeStyle;rounded=0;orthogonalLoop=1;jettySize=auto;html=1;exitX=0;exitY=0.5;exitDx=0;exitDy=0;fontSize=16;fontStyle=1" edge="1" parent="w0ju0qZ8pygQDqyRYgYo-21" source="w0ju0qZ8pygQDqyRYgYo-53" target="w0ju0qZ8pygQDqyRYgYo-41">
          <mxGeometry relative="1" as="geometry">
            <mxPoint x="105" y="898" as="targetPoint" />
            <mxPoint x="185" y="908" as="sourcePoint" />
          </mxGeometry>
        </mxCell>
        <mxCell id="w0ju0qZ8pygQDqyRYgYo-37" value="No" style="text;html=1;strokeColor=none;fillColor=none;align=center;verticalAlign=middle;whiteSpace=wrap;rounded=0;fontSize=19;fontStyle=1" vertex="1" parent="w0ju0qZ8pygQDqyRYgYo-21">
          <mxGeometry x="99.49999999999999" y="722" width="60" height="30" as="geometry" />
        </mxCell>
        <mxCell id="w0ju0qZ8pygQDqyRYgYo-38" style="edgeStyle=orthogonalEdgeStyle;rounded=0;orthogonalLoop=1;jettySize=auto;html=1;exitX=0.5;exitY=1;exitDx=0;exitDy=0;entryX=0.5;entryY=0;entryDx=0;entryDy=0;fontStyle=1" edge="1" parent="w0ju0qZ8pygQDqyRYgYo-21" source="w0ju0qZ8pygQDqyRYgYo-40" target="w0ju0qZ8pygQDqyRYgYo-42">
          <mxGeometry relative="1" as="geometry">
            <mxPoint x="452.27941176470586" y="1182.5" as="targetPoint" />
          </mxGeometry>
        </mxCell>
        <mxCell id="w0ju0qZ8pygQDqyRYgYo-39" style="rounded=0;orthogonalLoop=1;jettySize=auto;html=1;entryX=0.5;entryY=0;entryDx=0;entryDy=0;edgeStyle=orthogonalEdgeStyle;fontStyle=1" edge="1" parent="w0ju0qZ8pygQDqyRYgYo-21" target="w0ju0qZ8pygQDqyRYgYo-40">
          <mxGeometry relative="1" as="geometry">
            <mxPoint x="471" y="972" as="targetPoint" />
            <mxPoint x="470" y="942" as="sourcePoint" />
            <Array as="points">
              <mxPoint x="470" y="1002" />
              <mxPoint x="470" y="1002" />
            </Array>
          </mxGeometry>
        </mxCell>
        <mxCell id="w0ju0qZ8pygQDqyRYgYo-40" value="Display Dashboard" style="whiteSpace=wrap;rounded=1;fontSize=19;fillColor=#fff2cc;strokeColor=#d6b656;fontStyle=1" vertex="1" parent="w0ju0qZ8pygQDqyRYgYo-21">
          <mxGeometry x="370" y="1021" width="200" height="62.5" as="geometry" />
        </mxCell>
        <mxCell id="w0ju0qZ8pygQDqyRYgYo-41" value="Display error message" style="whiteSpace=wrap;rounded=1;fontSize=19;fillColor=#fff2cc;strokeColor=#d6b656;fontStyle=1" vertex="1" parent="w0ju0qZ8pygQDqyRYgYo-21">
          <mxGeometry x="40.00000000000001" y="905.5000000000001" width="200" height="62.5" as="geometry" />
        </mxCell>
        <mxCell id="w0ju0qZ8pygQDqyRYgYo-42" value="" style="ellipse;html=1;shape=endState;fillColor=strokeColor;fontStyle=1" vertex="1" parent="w0ju0qZ8pygQDqyRYgYo-21">
          <mxGeometry x="455" y="1142" width="30" height="32" as="geometry" />
        </mxCell>
        <mxCell id="w0ju0qZ8pygQDqyRYgYo-43" value="Display the forgot password page" style="whiteSpace=wrap;rounded=1;fontSize=19;fillColor=#fff2cc;strokeColor=#d6b656;fontStyle=1" vertex="1" parent="w0ju0qZ8pygQDqyRYgYo-21">
          <mxGeometry x="40.00000000000001" y="1072" width="200" height="62.5" as="geometry" />
        </mxCell>
        <mxCell id="w0ju0qZ8pygQDqyRYgYo-44" style="edgeStyle=orthogonalEdgeStyle;rounded=0;orthogonalLoop=1;jettySize=auto;html=1;exitX=0;exitY=0.5;exitDx=0;exitDy=0;entryX=0.5;entryY=0;entryDx=0;entryDy=0;fontStyle=1" edge="1" parent="w0ju0qZ8pygQDqyRYgYo-21" source="w0ju0qZ8pygQDqyRYgYo-45" target="w0ju0qZ8pygQDqyRYgYo-48">
          <mxGeometry relative="1" as="geometry" />
        </mxCell>
        <mxCell id="w0ju0qZ8pygQDqyRYgYo-45" value="Valid email?" style="rhombus;fontSize=19;fillColor=#dae8fc;strokeColor=#6c8ebf;fontStyle=1" vertex="1" parent="w0ju0qZ8pygQDqyRYgYo-21">
          <mxGeometry x="167.5" y="1283.5" width="195" height="140" as="geometry" />
        </mxCell>
        <mxCell id="w0ju0qZ8pygQDqyRYgYo-46" value="Yes" style="text;html=1;strokeColor=none;fillColor=none;align=center;verticalAlign=middle;whiteSpace=wrap;rounded=0;fontSize=19;fontStyle=1" vertex="1" parent="w0ju0qZ8pygQDqyRYgYo-21">
          <mxGeometry x="350" y="1322" width="60" height="30" as="geometry" />
        </mxCell>
        <mxCell id="w0ju0qZ8pygQDqyRYgYo-47" value="No" style="text;html=1;strokeColor=none;fillColor=none;align=center;verticalAlign=middle;whiteSpace=wrap;rounded=0;fontSize=19;fontStyle=1" vertex="1" parent="w0ju0qZ8pygQDqyRYgYo-21">
          <mxGeometry x="99.5" y="1322" width="60" height="30" as="geometry" />
        </mxCell>
        <mxCell id="w0ju0qZ8pygQDqyRYgYo-48" value="Display error message" style="whiteSpace=wrap;rounded=1;fontSize=19;fillColor=#fff2cc;strokeColor=#d6b656;fontStyle=1" vertex="1" parent="w0ju0qZ8pygQDqyRYgYo-21">
          <mxGeometry x="40.00000000000001" y="1459" width="200" height="62.5" as="geometry" />
        </mxCell>
        <mxCell id="w0ju0qZ8pygQDqyRYgYo-49" style="edgeStyle=orthogonalEdgeStyle;rounded=0;orthogonalLoop=1;jettySize=auto;html=1;exitX=0.5;exitY=1;exitDx=0;exitDy=0;entryX=1;entryY=0.5;entryDx=0;entryDy=0;fontStyle=1" edge="1" parent="w0ju0qZ8pygQDqyRYgYo-21" source="w0ju0qZ8pygQDqyRYgYo-50" target="w0ju0qZ8pygQDqyRYgYo-51">
          <mxGeometry relative="1" as="geometry" />
        </mxCell>
        <mxCell id="w0ju0qZ8pygQDqyRYgYo-50" value="Generate new pasword and send account details to email" style="whiteSpace=wrap;rounded=1;fontSize=19;fillColor=#fff2cc;strokeColor=#d6b656;fontStyle=1" vertex="1" parent="w0ju0qZ8pygQDqyRYgYo-21">
          <mxGeometry x="325.5" y="1459" width="289" height="62.5" as="geometry" />
        </mxCell>
        <mxCell id="w0ju0qZ8pygQDqyRYgYo-51" value="Display check email message" style="whiteSpace=wrap;rounded=1;fontSize=19;fillColor=#fff2cc;strokeColor=#d6b656;fontStyle=1" vertex="1" parent="w0ju0qZ8pygQDqyRYgYo-21">
          <mxGeometry x="165" y="1592" width="200" height="62.5" as="geometry" />
        </mxCell>
        <mxCell id="w0ju0qZ8pygQDqyRYgYo-52" style="edgeStyle=orthogonalEdgeStyle;rounded=0;orthogonalLoop=1;jettySize=auto;html=1;exitX=1;exitY=0.5;exitDx=0;exitDy=0;fontStyle=1" edge="1" parent="w0ju0qZ8pygQDqyRYgYo-21" source="w0ju0qZ8pygQDqyRYgYo-53">
          <mxGeometry relative="1" as="geometry">
            <mxPoint x="440" y="942" as="targetPoint" />
          </mxGeometry>
        </mxCell>
        <mxCell id="w0ju0qZ8pygQDqyRYgYo-53" value="User exists inÂ &#xa;database?" style="rhombus;fontSize=19;fillColor=#dae8fc;strokeColor=#6c8ebf;fontStyle=1" vertex="1" parent="w0ju0qZ8pygQDqyRYgYo-21">
          <mxGeometry x="167.5" y="687" width="195" height="140" as="geometry" />
        </mxCell>
        <mxCell id="w0ju0qZ8pygQDqyRYgYo-54" value="" style="endArrow=none;startArrow=none;endFill=0;startFill=0;endSize=8;html=1;verticalAlign=bottom;labelBackgroundColor=none;strokeWidth=3;rounded=0;fontStyle=1" edge="1" parent="w0ju0qZ8pygQDqyRYgYo-21">
          <mxGeometry width="160" relative="1" as="geometry">
            <mxPoint x="380" y="942.46" as="sourcePoint" />
            <mxPoint x="560" y="942" as="targetPoint" />
          </mxGeometry>
        </mxCell>
        <mxCell id="w0ju0qZ8pygQDqyRYgYo-55" style="edgeStyle=orthogonalEdgeStyle;rounded=0;orthogonalLoop=1;jettySize=auto;html=1;exitX=1;exitY=0.5;exitDx=0;exitDy=0;entryX=0.5;entryY=0;entryDx=0;entryDy=0;fontStyle=1" edge="1" parent="w0ju0qZ8pygQDqyRYgYo-21" source="w0ju0qZ8pygQDqyRYgYo-45" target="w0ju0qZ8pygQDqyRYgYo-50">
          <mxGeometry relative="1" as="geometry">
            <mxPoint x="455" y="1354" as="sourcePoint" />
            <mxPoint x="427" y="1459" as="targetPoint" />
          </mxGeometry>
        </mxCell>
        <mxCell id="w0ju0qZ8pygQDqyRYgYo-56" value="&lt;font style=&quot;font-size: 29px;&quot;&gt;&lt;span style=&quot;font-size: 29px;&quot;&gt;Authentication Process&lt;/span&gt;&lt;/font&gt;" style="text;html=1;align=center;verticalAlign=middle;whiteSpace=wrap;rounded=0;fontSize=29;fontStyle=1" vertex="1" parent="1">
          <mxGeometry x="-230" y="78" width="350" height="50" as="geometry" />
        </mxCell>
        <mxCell id="w0ju0qZ8pygQDqyRYgYo-57" style="edgeStyle=orthogonalEdgeStyle;rounded=0;orthogonalLoop=1;jettySize=auto;html=1;exitX=0.5;exitY=1;exitDx=0;exitDy=0;entryX=0.5;entryY=0;entryDx=0;entryDy=0;fontStyle=1" edge="1" parent="1" source="w0ju0qZ8pygQDqyRYgYo-26" target="w0ju0qZ8pygQDqyRYgYo-7">
          <mxGeometry relative="1" as="geometry">
            <mxPoint x="290" y="400" as="targetPoint" />
            <Array as="points">
              <mxPoint x="625" y="330" />
              <mxPoint x="190" y="330" />
            </Array>
          </mxGeometry>
        </mxCell>
        <mxCell id="w0ju0qZ8pygQDqyRYgYo-58" style="edgeStyle=orthogonalEdgeStyle;rounded=0;orthogonalLoop=1;jettySize=auto;html=1;exitX=1;exitY=0.5;exitDx=0;exitDy=0;entryX=0;entryY=0.5;entryDx=0;entryDy=0;fontStyle=1" edge="1" parent="1" source="w0ju0qZ8pygQDqyRYgYo-9" target="w0ju0qZ8pygQDqyRYgYo-26">
          <mxGeometry relative="1" as="geometry" />
        </mxCell>
        <mxCell id="w0ju0qZ8pygQDqyRYgYo-59" style="edgeStyle=orthogonalEdgeStyle;rounded=0;orthogonalLoop=1;jettySize=auto;html=1;exitX=1;exitY=0.5;exitDx=0;exitDy=0;entryX=0;entryY=0.5;entryDx=0;entryDy=0;fontStyle=1" edge="1" parent="1" source="w0ju0qZ8pygQDqyRYgYo-7" target="w0ju0qZ8pygQDqyRYgYo-31">
          <mxGeometry relative="1" as="geometry" />
        </mxCell>
        <mxCell id="w0ju0qZ8pygQDqyRYgYo-60" style="edgeStyle=orthogonalEdgeStyle;rounded=0;orthogonalLoop=1;jettySize=auto;html=1;exitX=0;exitY=0.5;exitDx=0;exitDy=0;entryX=0.5;entryY=1;entryDx=0;entryDy=0;fontStyle=1" edge="1" parent="1" source="w0ju0qZ8pygQDqyRYgYo-34" target="w0ju0qZ8pygQDqyRYgYo-7">
          <mxGeometry relative="1" as="geometry" />
        </mxCell>
        <mxCell id="w0ju0qZ8pygQDqyRYgYo-61" style="edgeStyle=orthogonalEdgeStyle;rounded=0;orthogonalLoop=1;jettySize=auto;html=1;exitX=0;exitY=0.5;exitDx=0;exitDy=0;entryX=1;entryY=0.5;entryDx=0;entryDy=0;fontStyle=1" edge="1" parent="1" source="w0ju0qZ8pygQDqyRYgYo-41" target="w0ju0qZ8pygQDqyRYgYo-13">
          <mxGeometry relative="1" as="geometry">
            <mxPoint x="280" y="953.4285714285716" as="targetPoint" />
          </mxGeometry>
        </mxCell>
        <mxCell id="w0ju0qZ8pygQDqyRYgYo-62" style="edgeStyle=orthogonalEdgeStyle;rounded=0;orthogonalLoop=1;jettySize=auto;html=1;exitX=1;exitY=0.5;exitDx=0;exitDy=0;entryX=0;entryY=0.5;entryDx=0;entryDy=0;fontStyle=1" edge="1" parent="1" source="w0ju0qZ8pygQDqyRYgYo-20" target="w0ju0qZ8pygQDqyRYgYo-43">
          <mxGeometry relative="1" as="geometry" />
        </mxCell>
        <mxCell id="w0ju0qZ8pygQDqyRYgYo-63" style="edgeStyle=orthogonalEdgeStyle;rounded=0;orthogonalLoop=1;jettySize=auto;html=1;exitX=1;exitY=0.5;exitDx=0;exitDy=0;entryX=0.5;entryY=0;entryDx=0;entryDy=0;fontStyle=1" edge="1" parent="1" source="w0ju0qZ8pygQDqyRYgYo-19" target="w0ju0qZ8pygQDqyRYgYo-45">
          <mxGeometry relative="1" as="geometry" />
        </mxCell>
        <mxCell id="w0ju0qZ8pygQDqyRYgYo-64" style="edgeStyle=orthogonalEdgeStyle;rounded=0;orthogonalLoop=1;jettySize=auto;html=1;exitX=0;exitY=0.5;exitDx=0;exitDy=0;entryX=0.25;entryY=1;entryDx=0;entryDy=0;fontStyle=1" edge="1" parent="1" source="w0ju0qZ8pygQDqyRYgYo-48" target="w0ju0qZ8pygQDqyRYgYo-19">
          <mxGeometry relative="1" as="geometry" />
        </mxCell>
        <mxCell id="w0ju0qZ8pygQDqyRYgYo-65" style="edgeStyle=orthogonalEdgeStyle;rounded=0;orthogonalLoop=1;jettySize=auto;html=1;exitX=0;exitY=0.5;exitDx=0;exitDy=0;entryX=0.25;entryY=1;entryDx=0;entryDy=0;fontStyle=1" edge="1" parent="1" source="w0ju0qZ8pygQDqyRYgYo-51" target="w0ju0qZ8pygQDqyRYgYo-18">
          <mxGeometry relative="1" as="geometry">
            <mxPoint x="-120" y="750" as="targetPoint" />
          </mxGeometry>
        </mxCell>
        <mxCell id="w0ju0qZ8pygQDqyRYgYo-66" style="edgeStyle=orthogonalEdgeStyle;rounded=0;orthogonalLoop=1;jettySize=auto;html=1;exitX=1;exitY=0.5;exitDx=0;exitDy=0;entryX=0.5;entryY=0;entryDx=0;entryDy=0;fontStyle=1" edge="1" parent="1" source="w0ju0qZ8pygQDqyRYgYo-18" target="w0ju0qZ8pygQDqyRYgYo-53">
          <mxGeometry relative="1" as="geometry">
            <mxPoint x="592.6249999999995" y="842.9999999999998" as="targetPoint" />
            <Array as="points">
              <mxPoint x="625" y="771" />
            </Array>
          </mxGeometry>
        </mxCell>
        <mxCell id="w0ju0qZ8pygQDqyRYgYo-67" style="edgeStyle=orthogonalEdgeStyle;rounded=0;orthogonalLoop=1;jettySize=auto;html=1;exitX=0.5;exitY=1;exitDx=0;exitDy=0;entryX=0.5;entryY=0;entryDx=0;entryDy=0;fontStyle=1" edge="1" parent="1" source="w0ju0qZ8pygQDqyRYgYo-43" target="w0ju0qZ8pygQDqyRYgYo-19">
          <mxGeometry relative="1" as="geometry">
            <mxPoint x="474.47999999999945" y="1280" as="sourcePoint" />
            <Array as="points">
              <mxPoint x="500" y="1300" />
              <mxPoint x="192" y="1300" />
            </Array>
          </mxGeometry>
        </mxCell>
      </root>
    </mxGraphModel>
  </diagram>
</mxfile>
